<mxfile host="app.diagrams.net" modified="2024-05-03T19:57:25.192Z" agent="Mozilla/5.0 (Macintosh; Intel Mac OS X 10_15_7) AppleWebKit/605.1.15 (KHTML, like Gecko) Version/17.4.1 Safari/605.1.15" etag="rrAcRhrs74Txt2oe5Ond" version="24.3.1" type="device">
  <diagram name="Page-1" id="J17axoBH4W83SoYxhI0r">
    <mxGraphModel dx="1306" dy="763" grid="1" gridSize="10" guides="1" tooltips="1" connect="1" arrows="1" fold="1" page="1" pageScale="1" pageWidth="850" pageHeight="1100" math="0" shadow="0">
      <root>
        <mxCell id="0" />
        <mxCell id="1" parent="0" />
        <mxCell id="h6Xsbok6eu0wow_d8Nn--77" value="" style="rounded=0;whiteSpace=wrap;html=1;fillColor=none;strokeColor=#CCCCCC;" parent="1" vertex="1">
          <mxGeometry x="600" y="560" width="40" height="280" as="geometry" />
        </mxCell>
        <mxCell id="h6Xsbok6eu0wow_d8Nn--78" value="" style="rounded=0;whiteSpace=wrap;html=1;fillColor=none;strokeColor=#CCCCCC;" parent="1" vertex="1">
          <mxGeometry x="640" y="560" width="40" height="280" as="geometry" />
        </mxCell>
        <mxCell id="h6Xsbok6eu0wow_d8Nn--8" value="" style="rounded=0;whiteSpace=wrap;html=1;fillColor=none;strokeColor=#CCCCCC;" parent="1" vertex="1">
          <mxGeometry x="80" y="80" width="40" height="280" as="geometry" />
        </mxCell>
        <mxCell id="h6Xsbok6eu0wow_d8Nn--9" value="" style="rounded=0;whiteSpace=wrap;html=1;fillColor=none;strokeColor=#CCCCCC;" parent="1" vertex="1">
          <mxGeometry x="120" y="80" width="40" height="280" as="geometry" />
        </mxCell>
        <mxCell id="h6Xsbok6eu0wow_d8Nn--10" value="" style="rounded=0;whiteSpace=wrap;html=1;fillColor=none;strokeColor=#CCCCCC;" parent="1" vertex="1">
          <mxGeometry x="160" y="80" width="40" height="280" as="geometry" />
        </mxCell>
        <mxCell id="h6Xsbok6eu0wow_d8Nn--11" value="" style="rounded=0;whiteSpace=wrap;html=1;fillColor=none;strokeColor=#CCCCCC;" parent="1" vertex="1">
          <mxGeometry x="200" y="80" width="40" height="280" as="geometry" />
        </mxCell>
        <mxCell id="h6Xsbok6eu0wow_d8Nn--12" value="" style="rounded=0;whiteSpace=wrap;html=1;fillColor=none;strokeColor=#CCCCCC;" parent="1" vertex="1">
          <mxGeometry x="240" y="80" width="40" height="280" as="geometry" />
        </mxCell>
        <mxCell id="h6Xsbok6eu0wow_d8Nn--13" value="" style="rounded=0;whiteSpace=wrap;html=1;fillColor=none;strokeColor=#CCCCCC;" parent="1" vertex="1">
          <mxGeometry x="280" y="80" width="40" height="280" as="geometry" />
        </mxCell>
        <mxCell id="h6Xsbok6eu0wow_d8Nn--14" value="" style="rounded=0;whiteSpace=wrap;html=1;fillColor=none;strokeColor=#CCCCCC;" parent="1" vertex="1">
          <mxGeometry x="320" y="80" width="40" height="280" as="geometry" />
        </mxCell>
        <mxCell id="h6Xsbok6eu0wow_d8Nn--15" value="" style="rounded=0;whiteSpace=wrap;html=1;fillColor=none;strokeColor=#CCCCCC;" parent="1" vertex="1">
          <mxGeometry x="360" y="80" width="40" height="280" as="geometry" />
        </mxCell>
        <mxCell id="h6Xsbok6eu0wow_d8Nn--16" value="" style="rounded=0;whiteSpace=wrap;html=1;fillColor=none;strokeColor=#CCCCCC;" parent="1" vertex="1">
          <mxGeometry x="400" y="80" width="40" height="280" as="geometry" />
        </mxCell>
        <mxCell id="h6Xsbok6eu0wow_d8Nn--17" value="" style="rounded=0;whiteSpace=wrap;html=1;fillColor=none;strokeColor=#CCCCCC;" parent="1" vertex="1">
          <mxGeometry x="440" y="80" width="40" height="280" as="geometry" />
        </mxCell>
        <mxCell id="h6Xsbok6eu0wow_d8Nn--18" value="" style="rounded=0;whiteSpace=wrap;html=1;fillColor=none;strokeColor=#CCCCCC;" parent="1" vertex="1">
          <mxGeometry x="480" y="80" width="40" height="280" as="geometry" />
        </mxCell>
        <mxCell id="h6Xsbok6eu0wow_d8Nn--19" value="" style="rounded=0;whiteSpace=wrap;html=1;fillColor=none;strokeColor=#CCCCCC;" parent="1" vertex="1">
          <mxGeometry x="520" y="80" width="40" height="280" as="geometry" />
        </mxCell>
        <mxCell id="h6Xsbok6eu0wow_d8Nn--20" value="" style="rounded=0;whiteSpace=wrap;html=1;fillColor=none;strokeColor=#CCCCCC;" parent="1" vertex="1">
          <mxGeometry x="560" y="80" width="40" height="280" as="geometry" />
        </mxCell>
        <mxCell id="h6Xsbok6eu0wow_d8Nn--22" value="" style="rounded=0;whiteSpace=wrap;html=1;strokeColor=#6c8ebf;fillColor=#dae8fc;" parent="1" vertex="1">
          <mxGeometry x="280" y="90" width="80" height="60" as="geometry" />
        </mxCell>
        <mxCell id="h6Xsbok6eu0wow_d8Nn--23" value="" style="rounded=0;whiteSpace=wrap;html=1;strokeColor=#82b366;fillColor=#d5e8d4;" parent="1" vertex="1">
          <mxGeometry x="80" y="160" width="200" height="60" as="geometry" />
        </mxCell>
        <mxCell id="h6Xsbok6eu0wow_d8Nn--24" value="" style="rounded=0;whiteSpace=wrap;html=1;strokeColor=#d79b00;fillColor=#ffe6cc;" parent="1" vertex="1">
          <mxGeometry x="360" y="230" width="40" height="60" as="geometry" />
        </mxCell>
        <mxCell id="h6Xsbok6eu0wow_d8Nn--26" value="" style="rounded=0;whiteSpace=wrap;html=1;strokeColor=#b85450;fillColor=#f8cecc;" parent="1" vertex="1">
          <mxGeometry x="400" y="300" width="120" height="60" as="geometry" />
        </mxCell>
        <mxCell id="h6Xsbok6eu0wow_d8Nn--29" value="" style="endArrow=none;html=1;rounded=0;strokeWidth=4;strokeColor=#6C8EBF;endFill=0;startArrow=block;startFill=1;" parent="1" edge="1">
          <mxGeometry width="50" height="50" relative="1" as="geometry">
            <mxPoint x="200" y="150" as="sourcePoint" />
            <mxPoint x="200" y="80" as="targetPoint" />
          </mxGeometry>
        </mxCell>
        <mxCell id="h6Xsbok6eu0wow_d8Nn--30" value="" style="endArrow=none;html=1;rounded=0;strokeWidth=4;strokeColor=#B85450;endFill=0;startArrow=block;startFill=1;" parent="1" edge="1">
          <mxGeometry width="50" height="50" relative="1" as="geometry">
            <mxPoint x="240" y="360" as="sourcePoint" />
            <mxPoint x="240" y="290" as="targetPoint" />
          </mxGeometry>
        </mxCell>
        <mxCell id="h6Xsbok6eu0wow_d8Nn--31" value="" style="endArrow=none;html=1;rounded=0;strokeWidth=4;strokeColor=#D79B00;endFill=0;startArrow=block;startFill=1;" parent="1" edge="1">
          <mxGeometry width="50" height="50" relative="1" as="geometry">
            <mxPoint x="319.71" y="290" as="sourcePoint" />
            <mxPoint x="319.71" y="220" as="targetPoint" />
          </mxGeometry>
        </mxCell>
        <mxCell id="h6Xsbok6eu0wow_d8Nn--32" value="T1" style="text;html=1;align=center;verticalAlign=middle;whiteSpace=wrap;rounded=0;fontSize=15;fontFamily=Open Sans;fontSource=https%3A%2F%2Ffonts.googleapis.com%2Fcss%3Ffamily%3DOpen%2BSans;" parent="1" vertex="1">
          <mxGeometry x="50" y="120" width="30" height="30" as="geometry" />
        </mxCell>
        <mxCell id="h6Xsbok6eu0wow_d8Nn--33" value="T2" style="text;html=1;align=center;verticalAlign=middle;whiteSpace=wrap;rounded=0;fontSize=15;fontFamily=Open Sans;fontSource=https%3A%2F%2Ffonts.googleapis.com%2Fcss%3Ffamily%3DOpen%2BSans;" parent="1" vertex="1">
          <mxGeometry x="50" y="190" width="30" height="30" as="geometry" />
        </mxCell>
        <mxCell id="h6Xsbok6eu0wow_d8Nn--34" value="T3" style="text;html=1;align=center;verticalAlign=middle;whiteSpace=wrap;rounded=0;fontSize=15;fontFamily=Open Sans;fontSource=https%3A%2F%2Ffonts.googleapis.com%2Fcss%3Ffamily%3DOpen%2BSans;" parent="1" vertex="1">
          <mxGeometry x="50" y="260" width="30" height="30" as="geometry" />
        </mxCell>
        <mxCell id="h6Xsbok6eu0wow_d8Nn--35" value="T4" style="text;html=1;align=center;verticalAlign=middle;whiteSpace=wrap;rounded=0;fontSize=15;fontFamily=Open Sans;fontSource=https%3A%2F%2Ffonts.googleapis.com%2Fcss%3Ffamily%3DOpen%2BSans;" parent="1" vertex="1">
          <mxGeometry x="50" y="330" width="30" height="30" as="geometry" />
        </mxCell>
        <mxCell id="h6Xsbok6eu0wow_d8Nn--36" value="5" style="text;html=1;align=center;verticalAlign=middle;whiteSpace=wrap;rounded=0;fontSize=15;fontFamily=Open Sans;fontSource=https%3A%2F%2Ffonts.googleapis.com%2Fcss%3Ffamily%3DOpen%2BSans;" parent="1" vertex="1">
          <mxGeometry x="265" y="360" width="30" height="30" as="geometry" />
        </mxCell>
        <mxCell id="h6Xsbok6eu0wow_d8Nn--37" value="10" style="text;html=1;align=center;verticalAlign=middle;whiteSpace=wrap;rounded=0;fontSize=15;fontFamily=Open Sans;fontSource=https%3A%2F%2Ffonts.googleapis.com%2Fcss%3Ffamily%3DOpen%2BSans;" parent="1" vertex="1">
          <mxGeometry x="465" y="360" width="30" height="30" as="geometry" />
        </mxCell>
        <mxCell id="h6Xsbok6eu0wow_d8Nn--38" value="SJF - Simple 4-Task Simulation" style="text;html=1;align=center;verticalAlign=middle;whiteSpace=wrap;rounded=0;fontFamily=Open Sans;fontSource=https%3A%2F%2Ffonts.googleapis.com%2Fcss%3Ffamily%3DOpen%2BSans;fontStyle=1;fontSize=15;" parent="1" vertex="1">
          <mxGeometry x="195" y="20" width="290" height="30" as="geometry" />
        </mxCell>
        <mxCell id="h6Xsbok6eu0wow_d8Nn--39" value="" style="rounded=0;whiteSpace=wrap;html=1;fillColor=none;strokeColor=#CCCCCC;" parent="1" vertex="1">
          <mxGeometry x="80" y="560" width="40" height="280" as="geometry" />
        </mxCell>
        <mxCell id="h6Xsbok6eu0wow_d8Nn--40" value="" style="rounded=0;whiteSpace=wrap;html=1;fillColor=none;strokeColor=#CCCCCC;" parent="1" vertex="1">
          <mxGeometry x="120" y="560" width="40" height="280" as="geometry" />
        </mxCell>
        <mxCell id="h6Xsbok6eu0wow_d8Nn--41" value="" style="rounded=0;whiteSpace=wrap;html=1;fillColor=none;strokeColor=#CCCCCC;" parent="1" vertex="1">
          <mxGeometry x="160" y="560" width="40" height="280" as="geometry" />
        </mxCell>
        <mxCell id="h6Xsbok6eu0wow_d8Nn--42" value="" style="rounded=0;whiteSpace=wrap;html=1;fillColor=none;strokeColor=#CCCCCC;" parent="1" vertex="1">
          <mxGeometry x="200" y="560" width="40" height="280" as="geometry" />
        </mxCell>
        <mxCell id="h6Xsbok6eu0wow_d8Nn--43" value="" style="rounded=0;whiteSpace=wrap;html=1;fillColor=none;strokeColor=#CCCCCC;" parent="1" vertex="1">
          <mxGeometry x="240" y="560" width="40" height="280" as="geometry" />
        </mxCell>
        <mxCell id="h6Xsbok6eu0wow_d8Nn--44" value="" style="rounded=0;whiteSpace=wrap;html=1;fillColor=none;strokeColor=#CCCCCC;" parent="1" vertex="1">
          <mxGeometry x="280" y="560" width="40" height="280" as="geometry" />
        </mxCell>
        <mxCell id="h6Xsbok6eu0wow_d8Nn--45" value="" style="rounded=0;whiteSpace=wrap;html=1;fillColor=none;strokeColor=#CCCCCC;" parent="1" vertex="1">
          <mxGeometry x="320" y="560" width="40" height="280" as="geometry" />
        </mxCell>
        <mxCell id="h6Xsbok6eu0wow_d8Nn--46" value="" style="rounded=0;whiteSpace=wrap;html=1;fillColor=none;strokeColor=#CCCCCC;" parent="1" vertex="1">
          <mxGeometry x="360" y="560" width="40" height="280" as="geometry" />
        </mxCell>
        <mxCell id="h6Xsbok6eu0wow_d8Nn--47" value="" style="rounded=0;whiteSpace=wrap;html=1;fillColor=none;strokeColor=#CCCCCC;" parent="1" vertex="1">
          <mxGeometry x="400" y="560" width="40" height="280" as="geometry" />
        </mxCell>
        <mxCell id="h6Xsbok6eu0wow_d8Nn--48" value="" style="rounded=0;whiteSpace=wrap;html=1;fillColor=none;strokeColor=#CCCCCC;" parent="1" vertex="1">
          <mxGeometry x="440" y="560" width="40" height="280" as="geometry" />
        </mxCell>
        <mxCell id="h6Xsbok6eu0wow_d8Nn--49" value="" style="rounded=0;whiteSpace=wrap;html=1;fillColor=none;strokeColor=#CCCCCC;" parent="1" vertex="1">
          <mxGeometry x="480" y="560" width="40" height="280" as="geometry" />
        </mxCell>
        <mxCell id="h6Xsbok6eu0wow_d8Nn--50" value="" style="rounded=0;whiteSpace=wrap;html=1;fillColor=none;strokeColor=#CCCCCC;" parent="1" vertex="1">
          <mxGeometry x="520" y="560" width="40" height="280" as="geometry" />
        </mxCell>
        <mxCell id="h6Xsbok6eu0wow_d8Nn--51" value="" style="rounded=0;whiteSpace=wrap;html=1;fillColor=none;strokeColor=#CCCCCC;" parent="1" vertex="1">
          <mxGeometry x="560" y="560" width="40" height="280" as="geometry" />
        </mxCell>
        <mxCell id="h6Xsbok6eu0wow_d8Nn--56" value="" style="rounded=0;whiteSpace=wrap;html=1;strokeColor=#6c8ebf;fillColor=#dae8fc;" parent="1" vertex="1">
          <mxGeometry x="480" y="570" width="80" height="60" as="geometry" />
        </mxCell>
        <mxCell id="h6Xsbok6eu0wow_d8Nn--57" value="" style="rounded=0;whiteSpace=wrap;html=1;strokeColor=#82b366;fillColor=#d5e8d4;" parent="1" vertex="1">
          <mxGeometry x="160" y="640" width="80" height="60" as="geometry" />
        </mxCell>
        <mxCell id="h6Xsbok6eu0wow_d8Nn--58" value="" style="rounded=0;whiteSpace=wrap;html=1;strokeColor=#d79b00;fillColor=#ffe6cc;" parent="1" vertex="1">
          <mxGeometry x="400" y="710" width="80" height="60" as="geometry" />
        </mxCell>
        <mxCell id="h6Xsbok6eu0wow_d8Nn--60" value="" style="rounded=0;whiteSpace=wrap;html=1;strokeColor=#b85450;fillColor=#f8cecc;" parent="1" vertex="1">
          <mxGeometry x="80" y="780" width="80" height="60" as="geometry" />
        </mxCell>
        <mxCell id="h6Xsbok6eu0wow_d8Nn--61" value="" style="endArrow=none;html=1;rounded=0;strokeWidth=4;strokeColor=#82B366;endFill=0;startArrow=block;startFill=1;" parent="1" edge="1">
          <mxGeometry width="50" height="50" relative="1" as="geometry">
            <mxPoint x="159.31" y="700" as="sourcePoint" />
            <mxPoint x="159.31" y="630" as="targetPoint" />
          </mxGeometry>
        </mxCell>
        <mxCell id="h6Xsbok6eu0wow_d8Nn--62" value="" style="endArrow=none;html=1;rounded=0;strokeWidth=4;strokeColor=#6C8EBF;endFill=0;startArrow=block;startFill=1;" parent="1" edge="1">
          <mxGeometry width="50" height="50" relative="1" as="geometry">
            <mxPoint x="360" y="630" as="sourcePoint" />
            <mxPoint x="360" y="560" as="targetPoint" />
          </mxGeometry>
        </mxCell>
        <mxCell id="h6Xsbok6eu0wow_d8Nn--64" value="" style="endArrow=none;html=1;rounded=0;strokeWidth=4;strokeColor=#D79B00;endFill=0;startArrow=block;startFill=1;" parent="1" edge="1">
          <mxGeometry width="50" height="50" relative="1" as="geometry">
            <mxPoint x="279.65999999999997" y="770" as="sourcePoint" />
            <mxPoint x="279.65999999999997" y="700" as="targetPoint" />
          </mxGeometry>
        </mxCell>
        <mxCell id="h6Xsbok6eu0wow_d8Nn--65" value="T1" style="text;html=1;align=center;verticalAlign=middle;whiteSpace=wrap;rounded=0;fontSize=15;fontFamily=Open Sans;fontSource=https%3A%2F%2Ffonts.googleapis.com%2Fcss%3Ffamily%3DOpen%2BSans;" parent="1" vertex="1">
          <mxGeometry x="50" y="600" width="30" height="30" as="geometry" />
        </mxCell>
        <mxCell id="h6Xsbok6eu0wow_d8Nn--66" value="T2" style="text;html=1;align=center;verticalAlign=middle;whiteSpace=wrap;rounded=0;fontSize=15;fontFamily=Open Sans;fontSource=https%3A%2F%2Ffonts.googleapis.com%2Fcss%3Ffamily%3DOpen%2BSans;" parent="1" vertex="1">
          <mxGeometry x="50" y="670" width="30" height="30" as="geometry" />
        </mxCell>
        <mxCell id="h6Xsbok6eu0wow_d8Nn--67" value="T3" style="text;html=1;align=center;verticalAlign=middle;whiteSpace=wrap;rounded=0;fontSize=15;fontFamily=Open Sans;fontSource=https%3A%2F%2Ffonts.googleapis.com%2Fcss%3Ffamily%3DOpen%2BSans;" parent="1" vertex="1">
          <mxGeometry x="50" y="740" width="30" height="30" as="geometry" />
        </mxCell>
        <mxCell id="h6Xsbok6eu0wow_d8Nn--68" value="T4" style="text;html=1;align=center;verticalAlign=middle;whiteSpace=wrap;rounded=0;fontSize=15;fontFamily=Open Sans;fontSource=https%3A%2F%2Ffonts.googleapis.com%2Fcss%3Ffamily%3DOpen%2BSans;" parent="1" vertex="1">
          <mxGeometry x="50" y="810" width="30" height="30" as="geometry" />
        </mxCell>
        <mxCell id="h6Xsbok6eu0wow_d8Nn--69" value="5" style="text;html=1;align=center;verticalAlign=middle;whiteSpace=wrap;rounded=0;fontSize=15;fontFamily=Open Sans;fontSource=https%3A%2F%2Ffonts.googleapis.com%2Fcss%3Ffamily%3DOpen%2BSans;" parent="1" vertex="1">
          <mxGeometry x="265" y="840" width="30" height="30" as="geometry" />
        </mxCell>
        <mxCell id="h6Xsbok6eu0wow_d8Nn--70" value="10" style="text;html=1;align=center;verticalAlign=middle;whiteSpace=wrap;rounded=0;fontSize=15;fontFamily=Open Sans;fontSource=https%3A%2F%2Ffonts.googleapis.com%2Fcss%3Ffamily%3DOpen%2BSans;" parent="1" vertex="1">
          <mxGeometry x="465" y="840" width="30" height="30" as="geometry" />
        </mxCell>
        <mxCell id="h6Xsbok6eu0wow_d8Nn--71" value="RR (q = 2) - Simple 4-Task Simulation" style="text;html=1;align=center;verticalAlign=middle;whiteSpace=wrap;rounded=0;fontFamily=Open Sans;fontSource=https%3A%2F%2Ffonts.googleapis.com%2Fcss%3Ffamily%3DOpen%2BSans;fontStyle=1;fontSize=15;" parent="1" vertex="1">
          <mxGeometry x="213.5" y="500" width="345" height="30" as="geometry" />
        </mxCell>
        <mxCell id="h6Xsbok6eu0wow_d8Nn--72" value="" style="rounded=0;whiteSpace=wrap;html=1;strokeColor=#b85450;fillColor=#f8cecc;" parent="1" vertex="1">
          <mxGeometry x="240" y="780" width="80" height="60" as="geometry" />
        </mxCell>
        <mxCell id="h6Xsbok6eu0wow_d8Nn--73" value="" style="rounded=0;whiteSpace=wrap;html=1;strokeColor=#82b366;fillColor=#d5e8d4;" parent="1" vertex="1">
          <mxGeometry x="320" y="640" width="80" height="60" as="geometry" />
        </mxCell>
        <mxCell id="h6Xsbok6eu0wow_d8Nn--74" value="" style="rounded=0;whiteSpace=wrap;html=1;strokeColor=#82b366;fillColor=#d5e8d4;" parent="1" vertex="1">
          <mxGeometry x="560" y="640" width="80" height="60" as="geometry" />
        </mxCell>
        <mxCell id="h6Xsbok6eu0wow_d8Nn--75" value="" style="rounded=0;whiteSpace=wrap;html=1;strokeColor=#d79b00;fillColor=#ffe6cc;" parent="1" vertex="1">
          <mxGeometry x="640" y="710" width="40" height="60" as="geometry" />
        </mxCell>
        <mxCell id="h6Xsbok6eu0wow_d8Nn--79" value="15" style="text;html=1;align=center;verticalAlign=middle;whiteSpace=wrap;rounded=0;fontSize=15;fontFamily=Open Sans;fontSource=https%3A%2F%2Ffonts.googleapis.com%2Fcss%3Ffamily%3DOpen%2BSans;" parent="1" vertex="1">
          <mxGeometry x="665" y="840" width="30" height="30" as="geometry" />
        </mxCell>
        <mxCell id="h6Xsbok6eu0wow_d8Nn--2" value="" style="endArrow=block;html=1;rounded=0;endFill=1;" parent="1" edge="1">
          <mxGeometry width="50" height="50" relative="1" as="geometry">
            <mxPoint x="80" y="150" as="sourcePoint" />
            <mxPoint x="640" y="150" as="targetPoint" />
          </mxGeometry>
        </mxCell>
        <mxCell id="h6Xsbok6eu0wow_d8Nn--3" value="" style="endArrow=block;html=1;rounded=0;endFill=1;" parent="1" edge="1">
          <mxGeometry width="50" height="50" relative="1" as="geometry">
            <mxPoint x="80" y="220" as="sourcePoint" />
            <mxPoint x="640" y="220" as="targetPoint" />
          </mxGeometry>
        </mxCell>
        <mxCell id="h6Xsbok6eu0wow_d8Nn--4" value="" style="endArrow=block;html=1;rounded=0;endFill=1;" parent="1" edge="1">
          <mxGeometry width="50" height="50" relative="1" as="geometry">
            <mxPoint x="80" y="290" as="sourcePoint" />
            <mxPoint x="640" y="290" as="targetPoint" />
          </mxGeometry>
        </mxCell>
        <mxCell id="h6Xsbok6eu0wow_d8Nn--1" value="" style="endArrow=block;html=1;rounded=0;endFill=1;" parent="1" edge="1">
          <mxGeometry width="50" height="50" relative="1" as="geometry">
            <mxPoint x="80" y="360" as="sourcePoint" />
            <mxPoint x="80" y="60" as="targetPoint" />
          </mxGeometry>
        </mxCell>
        <mxCell id="h6Xsbok6eu0wow_d8Nn--25" value="" style="endArrow=block;html=1;rounded=0;endFill=1;" parent="1" edge="1">
          <mxGeometry width="50" height="50" relative="1" as="geometry">
            <mxPoint x="80" y="360" as="sourcePoint" />
            <mxPoint x="640" y="360" as="targetPoint" />
          </mxGeometry>
        </mxCell>
        <mxCell id="h6Xsbok6eu0wow_d8Nn--52" value="" style="endArrow=block;html=1;rounded=0;endFill=1;" parent="1" edge="1">
          <mxGeometry width="50" height="50" relative="1" as="geometry">
            <mxPoint x="80" y="630" as="sourcePoint" />
            <mxPoint x="720" y="630" as="targetPoint" />
          </mxGeometry>
        </mxCell>
        <mxCell id="h6Xsbok6eu0wow_d8Nn--53" value="" style="endArrow=block;html=1;rounded=0;endFill=1;" parent="1" edge="1">
          <mxGeometry width="50" height="50" relative="1" as="geometry">
            <mxPoint x="80" y="700" as="sourcePoint" />
            <mxPoint x="720" y="700" as="targetPoint" />
          </mxGeometry>
        </mxCell>
        <mxCell id="h6Xsbok6eu0wow_d8Nn--54" value="" style="endArrow=block;html=1;rounded=0;endFill=1;" parent="1" edge="1">
          <mxGeometry width="50" height="50" relative="1" as="geometry">
            <mxPoint x="80" y="770" as="sourcePoint" />
            <mxPoint x="720" y="770" as="targetPoint" />
          </mxGeometry>
        </mxCell>
        <mxCell id="h6Xsbok6eu0wow_d8Nn--59" value="" style="endArrow=block;html=1;rounded=0;endFill=1;" parent="1" edge="1">
          <mxGeometry width="50" height="50" relative="1" as="geometry">
            <mxPoint x="80" y="840" as="sourcePoint" />
            <mxPoint x="720" y="840" as="targetPoint" />
          </mxGeometry>
        </mxCell>
        <mxCell id="h6Xsbok6eu0wow_d8Nn--55" value="" style="endArrow=block;html=1;rounded=0;endFill=1;" parent="1" edge="1">
          <mxGeometry width="50" height="50" relative="1" as="geometry">
            <mxPoint x="80" y="840" as="sourcePoint" />
            <mxPoint x="80" y="540" as="targetPoint" />
          </mxGeometry>
        </mxCell>
        <mxCell id="h6Xsbok6eu0wow_d8Nn--63" value="" style="endArrow=none;html=1;rounded=0;strokeWidth=4;strokeColor=#B85450;endFill=0;startArrow=block;startFill=1;" parent="1" edge="1">
          <mxGeometry width="50" height="50" relative="1" as="geometry">
            <mxPoint x="80" y="840" as="sourcePoint" />
            <mxPoint x="80" y="770" as="targetPoint" />
          </mxGeometry>
        </mxCell>
        <mxCell id="h6Xsbok6eu0wow_d8Nn--28" value="" style="endArrow=none;html=1;rounded=0;strokeWidth=4;strokeColor=#82B366;endFill=0;startArrow=block;startFill=1;" parent="1" edge="1">
          <mxGeometry width="50" height="50" relative="1" as="geometry">
            <mxPoint x="80" y="220" as="sourcePoint" />
            <mxPoint x="80" y="150" as="targetPoint" />
          </mxGeometry>
        </mxCell>
        <mxCell id="5tPaoLCwtkNlxQOoL_pa-1" value="" style="endArrow=block;html=1;rounded=0;strokeWidth=4;strokeColor=#B85450;endFill=1;startArrow=none;startFill=0;" edge="1" parent="1">
          <mxGeometry width="50" height="50" relative="1" as="geometry">
            <mxPoint x="319.52" y="840" as="sourcePoint" />
            <mxPoint x="319.52" y="770" as="targetPoint" />
          </mxGeometry>
        </mxCell>
        <mxCell id="5tPaoLCwtkNlxQOoL_pa-2" value="" style="endArrow=block;html=1;rounded=0;strokeWidth=4;strokeColor=#D79B00;endFill=1;startArrow=none;startFill=0;" edge="1" parent="1">
          <mxGeometry width="50" height="50" relative="1" as="geometry">
            <mxPoint x="679.52" y="770" as="sourcePoint" />
            <mxPoint x="679.52" y="700" as="targetPoint" />
          </mxGeometry>
        </mxCell>
        <mxCell id="5tPaoLCwtkNlxQOoL_pa-3" value="" style="endArrow=block;html=1;rounded=0;strokeWidth=4;strokeColor=#82B366;endFill=1;startArrow=none;startFill=0;" edge="1" parent="1">
          <mxGeometry width="50" height="50" relative="1" as="geometry">
            <mxPoint x="640" y="700" as="sourcePoint" />
            <mxPoint x="640" y="630" as="targetPoint" />
          </mxGeometry>
        </mxCell>
        <mxCell id="5tPaoLCwtkNlxQOoL_pa-5" value="" style="endArrow=block;html=1;rounded=0;strokeWidth=4;strokeColor=#6C8EBF;endFill=1;startArrow=none;startFill=0;" edge="1" parent="1">
          <mxGeometry width="50" height="50" relative="1" as="geometry">
            <mxPoint x="560" y="630" as="sourcePoint" />
            <mxPoint x="560" y="560" as="targetPoint" />
          </mxGeometry>
        </mxCell>
        <mxCell id="5tPaoLCwtkNlxQOoL_pa-6" value="" style="endArrow=block;html=1;rounded=0;strokeWidth=4;strokeColor=#82B366;endFill=1;startArrow=none;startFill=0;" edge="1" parent="1">
          <mxGeometry width="50" height="50" relative="1" as="geometry">
            <mxPoint x="280" y="220" as="sourcePoint" />
            <mxPoint x="280" y="150" as="targetPoint" />
          </mxGeometry>
        </mxCell>
        <mxCell id="5tPaoLCwtkNlxQOoL_pa-7" value="" style="endArrow=block;html=1;rounded=0;strokeWidth=4;strokeColor=#6C8EBF;endFill=1;startArrow=none;startFill=0;" edge="1" parent="1">
          <mxGeometry width="50" height="50" relative="1" as="geometry">
            <mxPoint x="359.58000000000004" y="150" as="sourcePoint" />
            <mxPoint x="359.58000000000004" y="80" as="targetPoint" />
          </mxGeometry>
        </mxCell>
        <mxCell id="5tPaoLCwtkNlxQOoL_pa-8" value="" style="endArrow=block;html=1;rounded=0;strokeWidth=4;strokeColor=#D79B00;endFill=1;startArrow=none;startFill=0;" edge="1" parent="1">
          <mxGeometry width="50" height="50" relative="1" as="geometry">
            <mxPoint x="399.16999999999996" y="290" as="sourcePoint" />
            <mxPoint x="399.16999999999996" y="220" as="targetPoint" />
          </mxGeometry>
        </mxCell>
        <mxCell id="5tPaoLCwtkNlxQOoL_pa-9" value="" style="endArrow=block;html=1;rounded=0;strokeWidth=4;strokeColor=#B85450;endFill=1;startArrow=none;startFill=0;" edge="1" parent="1">
          <mxGeometry width="50" height="50" relative="1" as="geometry">
            <mxPoint x="520" y="360" as="sourcePoint" />
            <mxPoint x="520" y="290" as="targetPoint" />
          </mxGeometry>
        </mxCell>
      </root>
    </mxGraphModel>
  </diagram>
</mxfile>
